<svg width="31" height="31" viewBox="0 0 31 31" fill="none" xmlns="http://www.w3.org/2000/svg">
<path d="M15.25 4C9.0368 4 4 9.0368 4 15.25H26.5C26.5 9.0368 21.4632 4 15.25 4Z" fill="#FE1C1D"/>
<path d="M15.75 26.25C21.9632 26.25 27 21.2132 27 15L4.5 15C4.5 21.2132 9.5368 26.25 15.75 26.25Z" fill="white"/>
<path d="M4.5 15.25C4.5 16.7274 4.79099 18.1903 5.35636 19.5552C5.92172 20.9201 6.75039 22.1603 7.79505 23.205C8.83971 24.2496 10.0799 25.0783 11.4448 25.6436C12.8097 26.209 14.2726 26.5 15.75 26.5C17.2274 26.5 18.6903 26.209 20.0552 25.6436C21.4201 25.0783 22.6603 24.2496 23.705 23.205C24.7496 22.1603 25.5783 20.9201 26.1436 19.5552C26.709 18.1903 27 16.7274 27 15.25C27 13.7726 26.709 12.3097 26.1436 10.9448C25.5783 9.5799 24.7496 8.33971 23.705 7.29505C22.6603 6.25039 21.4201 5.42172 20.0552 4.85636C18.6903 4.29099 17.2274 4 15.75 4C14.2726 4 12.8097 4.29099 11.4448 4.85636C10.0799 5.42172 8.83971 6.25039 7.79505 7.29505C6.75039 8.33971 5.92172 9.5799 5.35636 10.9448C4.79099 12.3097 4.5 13.7726 4.5 15.25Z" stroke="black" stroke-width="2" stroke-linecap="round" stroke-linejoin="round"/>
<path d="M12 15.25C12 16.2446 12.3951 17.1984 13.0983 17.9017C13.8016 18.6049 14.7554 19 15.75 19C16.7446 19 17.6984 18.6049 18.4017 17.9017C19.1049 17.1984 19.5 16.2446 19.5 15.25C19.5 14.2554 19.1049 13.3016 18.4017 12.5983C17.6984 11.8951 16.7446 11.5 15.75 11.5C14.7554 11.5 13.8016 11.8951 13.0983 12.5983C12.3951 13.3016 12 14.2554 12 15.25ZM4.5 15.25H12ZM19.5 15.25H27Z" fill="white"/>
<path d="M12 15.25C12 16.2446 12.3951 17.1984 13.0983 17.9017C13.8016 18.6049 14.7554 19 15.75 19C16.7446 19 17.6984 18.6049 18.4017 17.9017C19.1049 17.1984 19.5 16.2446 19.5 15.25M12 15.25C12 14.2554 12.3951 13.3016 13.0983 12.5983C13.8016 11.8951 14.7554 11.5 15.75 11.5C16.7446 11.5 17.6984 11.8951 18.4017 12.5983C19.1049 13.3016 19.5 14.2554 19.5 15.25M12 15.25H4.5M19.5 15.25H27" stroke="black" stroke-width="2" stroke-linecap="round" stroke-linejoin="round"/>
</svg>
