<svg width="31" height="31" viewBox="0 0 31 31" fill="none" xmlns="http://www.w3.org/2000/svg">
<path d="M15.25 4C9.0368 4 4 9.0368 4 15.25H26.5C26.5 9.0368 21.4632 4 15.25 4Z" fill="#FE1C1D"/>
<path d="M4 15.25C4 16.7274 4.29099 18.1903 4.85636 19.5552C5.42172 20.9201 6.25039 22.1603 7.29505 23.205C8.33971 24.2496 9.5799 25.0783 10.9448 25.6436C12.3097 26.209 13.7726 26.5 15.25 26.5C16.7274 26.5 18.1903 26.209 19.5552 25.6436C20.9201 25.0783 22.1603 24.2496 23.205 23.205C24.2496 22.1603 25.0783 20.9201 25.6436 19.5552C26.209 18.1903 26.5 16.7274 26.5 15.25C26.5 13.7726 26.209 12.3097 25.6436 10.9448C25.0783 9.5799 24.2496 8.33971 23.205 7.29505C22.1603 6.25039 20.9201 5.42172 19.5552 4.85636C18.1903 4.29099 16.7274 4 15.25 4C13.7726 4 12.3097 4.29099 10.9448 4.85636C9.5799 5.42172 8.33971 6.25039 7.29505 7.29505C6.25039 8.33971 5.42172 9.5799 4.85636 10.9448C4.29099 12.3097 4 13.7726 4 15.25Z" stroke="black" stroke-width="2" stroke-linecap="round" stroke-linejoin="round"/>
<path d="M11.5 15.25C11.5 16.2446 11.8951 17.1984 12.5983 17.9017C13.3016 18.6049 14.2554 19 15.25 19C16.2446 19 17.1984 18.6049 17.9017 17.9017C18.6049 17.1984 19 16.2446 19 15.25C19 14.2554 18.6049 13.3016 17.9017 12.5983C17.1984 11.8951 16.2446 11.5 15.25 11.5C14.2554 11.5 13.3016 11.8951 12.5983 12.5983C11.8951 13.3016 11.5 14.2554 11.5 15.25ZM4 15.25H11.5ZM19 15.25H26.5Z" fill="white"/>
<path d="M11.5 15.25C11.5 16.2446 11.8951 17.1984 12.5983 17.9017C13.3016 18.6049 14.2554 19 15.25 19C16.2446 19 17.1984 18.6049 17.9017 17.9017C18.6049 17.1984 19 16.2446 19 15.25M11.5 15.25C11.5 14.2554 11.8951 13.3016 12.5983 12.5983C13.3016 11.8951 14.2554 11.5 15.25 11.5C16.2446 11.5 17.1984 11.8951 17.9017 12.5983C18.6049 13.3016 19 14.2554 19 15.25M11.5 15.25H4M19 15.25H26.5" stroke="black" stroke-width="2" stroke-linecap="round" stroke-linejoin="round"/>
</svg>
